<?xml version="1.0" encoding="UTF-8"?> <svg xmlns="http://www.w3.org/2000/svg" width="127" height="32" viewBox="0 0 127 32" fill="none"><path d="M33.2181 4.14999L26.9325 28.9432H21.9257L16.6041 9.77031L11.2825 28.9432H6.28557L0 4.14999H4.4658L8.85291 24.3096L14.3614 4.14999H18.8567L24.3947 24.3096L28.7523 4.14999H33.2181Z" fill="#374046"></path><path d="M53.5702 20.063H38.4317C38.3978 20.8722 38.5282 21.6799 38.8153 22.439C39.1024 23.198 39.5405 23.8932 40.104 24.4838C41.1717 25.4544 42.5853 25.9723 44.0386 25.9252C45.2708 25.9623 46.4822 25.606 47.4912 24.9094C48.3798 24.2676 48.9851 23.3159 49.1831 22.2492H53.5407C53.2971 23.5857 52.7203 24.8419 51.862 25.9055C51.0037 26.969 49.8906 27.8067 48.6224 28.3435C47.2177 28.9583 45.6939 29.2652 44.1566 29.2432C42.3973 29.2798 40.6585 28.8665 39.1105 28.0437C37.6445 27.249 36.445 26.0526 35.6578 24.5999C34.7874 22.9503 34.3639 21.1079 34.4283 19.2504C34.383 17.4173 34.813 15.603 35.6775 13.9784C36.4681 12.5306 37.667 11.3381 39.1301 10.5443C40.6782 9.72148 42.417 9.30815 44.1763 9.34475C45.9366 9.3058 47.6776 9.71218 49.2323 10.5249C50.633 11.2657 51.7872 12.3873 52.5571 13.7559C53.3436 15.1727 53.7435 16.7658 53.7178 18.3798C53.7223 18.9442 53.6729 19.5077 53.5702 20.063ZM48.947 15.0521C48.5073 14.225 47.8208 13.5499 46.9797 13.1174C46.1005 12.7259 45.1408 12.5405 44.1763 12.5757C42.7072 12.5292 41.2766 13.0421 40.1826 14.0074C39.6155 14.5651 39.1682 15.2294 38.8674 15.9606C38.5666 16.6918 38.4184 17.4751 38.4317 18.2637H49.6061C49.698 17.1535 49.4696 16.0404 48.947 15.0521Z" fill="#374046"></path><path d="M72.092 10.5445C73.4609 11.3639 74.5579 12.557 75.2496 13.9786C76.0453 15.6236 76.4362 17.4296 76.3906 19.2507C76.4408 21.0815 76.0498 22.898 75.2496 24.5518C74.561 25.9779 73.4634 27.1749 72.092 27.9955C70.7044 28.8086 69.1133 29.224 67.4984 29.1951C65.882 29.2372 64.2928 28.7805 62.9539 27.8891C61.7152 27.0583 60.7861 25.8525 60.3078 24.455V28.9436H56.2158V2.95081H60.2882V14.085C60.7697 12.6812 61.7061 11.4715 62.9539 10.6413C64.2983 9.746 65.895 9.28915 67.518 9.33533C69.1273 9.31288 70.7111 9.73158 72.092 10.5445ZM63.1801 13.6497C62.2648 14.1844 61.5215 14.9623 61.0357 15.894C60.4972 16.9324 60.227 18.0852 60.2488 19.2507C60.2225 20.4228 60.4929 21.5829 61.0357 22.6267C61.5249 23.551 62.2678 24.3218 63.1801 24.8517C64.1103 25.3866 65.1717 25.661 66.2491 25.6449C67.0564 25.679 67.862 25.545 68.6129 25.2516C69.3639 24.9582 70.0433 24.512 70.6067 23.9423C71.7617 22.6525 72.352 20.9664 72.2494 19.2507C72.3446 17.5419 71.7549 15.8644 70.6067 14.5784C70.0458 14.0042 69.3673 13.5538 68.6161 13.2569C67.8648 12.9601 67.058 12.8236 66.2491 12.8565C65.172 12.8429 64.1113 13.117 63.1801 13.6497Z" fill="#374046"></path><path d="M127 0H81.4468V32H127V0Z" fill="#4C74B9"></path><path d="M86.6699 4.92343V27.6368H92.621V18.7662H100.687V13.794H92.621V9.85692H102.566L99.487 4.92343H86.6699Z" fill="white"></path><path d="M123.262 27.6368H116.386L108.969 16.2801L116.111 4.92343H123.262L116.111 16.2801L123.262 27.6368Z" fill="#BDCFDC"></path><path d="M101.818 4.92343H108.684L116.111 16.2801L108.97 27.6368H101.818L108.97 16.2801L101.818 4.92343Z" fill="white"></path></svg> 